<svg width="56" height="56" viewBox="0 0 56 56" fill="none"
                                    xmlns="http://www.w3.org/2000/svg">
                                    <rect width="56" height="56" rx="16" fill="#9835FB" />
                                    <path fill-rule="evenodd" clip-rule="evenodd"
                                        d="M19.396 23.8885C19.396 21.1625 21.061 19.3955 23.638 19.3955H32.354C34.94 19.3955 36.605 21.1625 36.605 23.8885V29.1905C36.159 28.8125 34.812 27.8715 34.624 27.7595C33.224 26.9195 31.544 27.2995 30.454 28.7195C30.359 28.8445 28.782 31.1445 28.224 31.4885C28.095 31.5685 27.959 31.6115 27.814 31.6315C27.464 31.6615 27.127 31.4815 26.554 31.0985C26.224 30.8885 25.864 30.6495 25.454 30.4795C23.749 29.7665 22.45 30.9445 21.758 31.7345C21.749 31.7425 19.812 34.1045 19.781 34.1415C19.538 33.5505 19.396 32.8675 19.396 32.1025V23.8885ZM38 23.8885C38 20.3625 35.731 18.0005 32.354 18.0005H23.638C20.271 18.0005 18 20.3625 18 23.8885V32.1025C18 33.6745 18.447 35.0135 19.238 36.0095C19.247 36.0185 19.247 36.0285 19.256 36.0285C20.043 37.0135 21.166 37.6665 22.519 37.8995C22.531 37.9015 22.543 37.9035 22.556 37.9055C22.903 37.9625 23.262 38.0005 23.638 38.0005H32.354C32.535 38.0005 32.7 37.9665 32.874 37.9535C33.078 37.9365 33.289 37.9325 33.483 37.8985C33.74 37.8545 33.976 37.7775 34.215 37.7035C34.319 37.6705 34.43 37.6505 34.53 37.6125C34.773 37.5205 34.996 37.4015 35.217 37.2795C35.297 37.2355 35.383 37.1995 35.461 37.1505C35.678 37.0145 35.875 36.8555 36.068 36.6895C36.132 36.6345 36.201 36.5845 36.262 36.5265C36.45 36.3475 36.616 36.1505 36.775 35.9445C36.824 35.8795 36.876 35.8195 36.923 35.7525C37.076 35.5345 37.208 35.2995 37.33 35.0545C37.364 34.9835 37.4 34.9145 37.433 34.8425C37.546 34.5855 37.64 34.3165 37.72 34.0345C37.741 33.9585 37.762 33.8835 37.78 33.8055C37.851 33.5145 37.902 33.2145 37.935 32.9005C37.939 32.8625 37.95 32.8275 37.954 32.7895C37.961 32.7045 37.96 32.6195 37.965 32.5345C37.973 32.3885 38 32.2535 38 32.1025V23.8885Z"
                                        fill="white" />
                                    <path
                                        d="M24.5048 27.0001C25.8663 27.0001 27 25.87 27 24.5151C27 23.8356 26.7151 23.2132 26.2607 22.7615C25.8081 22.2935 25.1764 22.0001 24.4787 22.0001C23.1085 22.0001 22 23.1041 22 24.4687C22 24.6492 22.0213 24.8239 22.0591 24.9937C22.2878 26.1257 23.3081 27.0001 24.5048 27.0001Z"
                                        fill="white" fill-opacity="0.4" />
                                </svg>