<svg width="56" height="56" viewBox="0 0 56 56" fill="none"
                                    xmlns="http://www.w3.org/2000/svg">
                                    <rect y="6.10352e-05" width="56" height="56" rx="16" fill="#47A432" />
                                    <path
                                        d="M23.104 16.0001H19.048C17.368 16.0001 16 17.3801 16 19.0732V23.164C16 24.868 17.368 26.236 19.048 26.236H23.104C24.796 26.236 26.1519 24.868 26.1519 23.164V19.0732C26.1519 17.3801 24.796 16.0001 23.104 16.0001Z"
                                        fill="white" />
                                    <path
                                        d="M23.104 29.7637H19.048C17.368 29.7637 16 31.1329 16 32.8369V36.9277C16 38.6197 17.368 39.9997 19.048 39.9997H23.104C24.796 39.9997 26.1519 38.6197 26.1519 36.9277V32.8369C26.1519 31.1329 24.796 29.7637 23.104 29.7637Z"
                                        fill="white" />
                                    <path
                                        d="M36.9516 16.0001H32.8956C31.2036 16.0001 29.8477 17.3801 29.8477 19.0732V23.164C29.8477 24.868 31.2036 26.236 32.8956 26.236H36.9516C38.6316 26.236 39.9996 24.868 39.9996 23.164V19.0732C39.9996 17.3801 38.6316 16.0001 36.9516 16.0001Z"
                                        fill="white" fill-opacity="0.4" />
                                    <path
                                        d="M36.9516 29.7637H32.8956C31.2036 29.7637 29.8477 31.1329 29.8477 32.8369V36.9277C29.8477 38.6197 31.2036 39.9997 32.8956 39.9997H36.9516C38.6316 39.9997 39.9996 38.6197 39.9996 36.9277V32.8369C39.9996 31.1329 38.6316 29.7637 36.9516 29.7637Z"
                                        fill="white" />
                                </svg>