 <svg width="56" height="56" viewBox="0 0 56 56" fill="none"
                                    xmlns="http://www.w3.org/2000/svg">
                                    <rect y="6.10352e-05" width="56" height="56" rx="16" fill="#5142FC" />
                                    <path fill-rule="evenodd" clip-rule="evenodd"
                                        d="M34.9222 26.0179H39.1035C39.5983 26.0179 39.9995 26.3981 39.9995 26.8672V29.8195C39.9937 30.2863 39.5959 30.6634 39.1035 30.6688H35.0182C33.8252 30.684 32.7821 29.9098 32.5115 28.8085C32.376 28.1247 32.5662 27.4192 33.0312 26.881C33.4961 26.3427 34.1883 26.0268 34.9222 26.0179ZM35.1034 29.122H35.4981C36.0047 29.122 36.4154 28.7327 36.4154 28.2525C36.4154 27.7722 36.0047 27.3829 35.4981 27.3829H35.1034C34.8611 27.3802 34.6277 27.4696 34.4554 27.631C34.2831 27.7925 34.1861 28.0127 34.1861 28.2423C34.186 28.7242 34.5951 29.1164 35.1034 29.122Z"
                                        fill="#F9F9FA" fill-opacity="0.4" />
                                    <path
                                        d="M34.9227 24.2788H40C40 20.3154 37.5573 18.0001 33.4187 18.0001H22.5813C18.4427 18.0001 16 20.3154 16 24.2283V32.7718C16 36.6847 18.4427 39.0001 22.5813 39.0001H33.4187C37.5573 39.0001 40 36.6847 40 32.7718V32.4079H34.9227C32.5662 32.4079 30.656 30.5972 30.656 28.3636C30.656 26.13 32.5662 24.3193 34.9227 24.3193V24.2788Z"
                                        fill="white" />
                                    <path
                                        d="M28.4582 24.2789H21.6849C21.1766 24.2734 20.7675 23.8812 20.7676 23.3993C20.7734 22.923 21.1824 22.5398 21.6849 22.5399H28.4582C28.9649 22.5399 29.3756 22.9292 29.3756 23.4094C29.3756 23.8896 28.9649 24.2789 28.4582 24.2789Z"
                                        fill="#948BFB" />
                                </svg>